<?xml version="1.0"?>
<svg xmlns="http://www.w3.org/2000/svg" viewBox="0 0 24 24">
    <path d="M 13.59375 2 L 8.5625 7 C 8.5365 6.998 8.527 7 8.5 7 C 7.672 7 7 7.672 7 8.5 C 7 9.328 7.672 10 8.5 10 C 9.328 10 10 9.328 10 8.5 C 10 8.473 10.002 8.4635 10 8.4375 L 14.40625 4 L 15 4 L 17 2 L 13.59375 2 z M 18.4375 2 C 18.181625 2 17.91375 2.08575 17.71875 2.28125 L 14.96875 5.0625 L 18.9375 9.03125 L 21.71875 6.28125 C 22.10975 5.89025 22.10975 5.23475 21.71875 4.84375 L 19.15625 2.28125 C 18.96075 2.08575 18.693375 2 18.4375 2 z M 13.90625 6.125 L 5 15.03125 L 3 17.03125 L 2 22 L 6.96875 21 L 8.96875 19 L 17.875 10.09375 L 13.90625 6.125 z M 6.40625 16.4375 L 7.5625 17.59375 L 6 19.15625 L 4.5625 19.4375 L 4.84375 18 L 6.40625 16.4375 z"/>
</svg>
